<?xml version="1.0" standalone="no"?>
<!DOCTYPE svg PUBLIC "-//W3C//DTD SVG 20010904//EN"
 "http://www.w3.org/TR/2001/REC-SVG-20010904/DTD/svg10.dtd">
<svg version="1.0" xmlns="http://www.w3.org/2000/svg"
 width="577.000000pt" height="201.000000pt" viewBox="0 0 577.000000 201.000000"
 preserveAspectRatio="xMidYMid meet">

<g transform="translate(0.000000,201.000000) scale(0.100000,-0.100000)"
fill="#ffffff" stroke="none">
<path d="M815 1890 c-5 -11 -8 -12 -14 -2 -6 10 -24 5 -75 -23 -37 -20 -71
-33 -76 -30 -5 3 -31 -8 -59 -25 -55 -32 -68 -24 -23 15 15 13 22 25 16 25 -6
0 -17 -6 -23 -14 -7 -8 -22 -17 -35 -20 -13 -3 -29 -18 -36 -35 -13 -31 -53
-52 -43 -22 5 13 3 14 -8 4 -19 -19 -34 -16 -18 4 13 15 12 15 -16 0 -36 -18
-168 -151 -141 -141 16 6 17 4 11 -17 -4 -13 -14 -28 -21 -32 -12 -7 -11 -12
2 -32 19 -29 9 -33 -20 -7 -19 16 -19 15 2 -19 12 -20 19 -39 15 -42 -3 -4 -1
-13 6 -20 6 -8 8 -22 5 -31 -5 -14 -9 -14 -23 -4 -16 13 8 -19 42 -54 18 -19
23 -38 9 -38 -4 0 -13 -9 -20 -20 -11 -18 -10 -19 14 -10 17 7 23 7 19 0 -4
-6 -2 -17 5 -25 8 -10 6 -17 -12 -30 -18 -13 -19 -16 -4 -11 10 3 25 1 32 -5
11 -9 14 -4 16 27 1 22 2 48 2 58 1 11 7 21 14 24 7 2 10 13 6 28 -4 14 -2 24
4 24 6 0 18 3 28 7 13 5 16 3 11 -10 -3 -9 -2 -17 2 -17 5 0 11 7 15 15 4 12
24 15 89 15 l85 0 8 -77 c8 -71 11 -78 32 -81 45 -7 69 37 35 65 -16 13 -16
13 7 8 14 -4 30 -12 35 -19 18 -20 73 -55 78 -50 3 3 3 23 0 44 -4 30 -1 45
16 66 11 15 21 33 21 40 0 8 4 14 9 14 5 0 13 12 19 28 26 74 78 100 204 101
34 1 62 7 71 15 10 10 25 12 53 7 53 -10 154 -71 154 -93 0 -9 6 -21 13 -25
21 -13 40 -55 53 -113 9 -40 13 -47 13 -25 1 17 8 40 16 52 8 12 11 23 6 25
-4 2 1 12 12 23 11 11 17 14 13 8 -8 -15 10 -18 18 -4 3 5 -1 11 -9 15 -8 3
-15 10 -15 17 0 6 6 9 13 6 8 -3 13 9 15 39 1 24 7 55 12 69 9 23 12 25 25 11
8 -8 15 -25 15 -38 0 -13 6 -30 12 -36 10 -10 10 -15 1 -20 -8 -5 -9 -13 -3
-22 8 -13 12 -12 24 5 9 11 16 33 16 48 0 15 7 30 15 33 16 6 12 47 -7 71 -11
13 4 48 24 56 7 3 4 6 -8 6 -30 1 -36 12 -16 27 16 13 16 13 0 14 -10 0 -18 7
-18 15 0 8 -4 15 -10 15 -5 0 -10 -6 -10 -14 0 -9 -7 -12 -20 -9 -23 6 -27 23
-5 23 8 0 15 5 15 11 0 5 -4 7 -10 4 -5 -3 -10 -1 -10 4 0 6 -9 11 -20 11 -11
0 -20 7 -20 15 0 9 -9 25 -20 37 l-19 21 5 -27 c3 -19 0 -26 -12 -26 -10 0
-14 5 -10 15 7 20 -20 31 -38 16 -8 -7 -25 -9 -40 -5 -15 3 -26 2 -26 -4 0 -6
-8 -8 -19 -5 -10 3 -22 0 -25 -6 -4 -6 -2 -11 5 -11 20 0 1 -13 -39 -27 -51
-18 -73 -16 -37 4 21 12 26 18 15 21 -8 3 -20 11 -28 18 -7 7 -20 11 -30 8
-14 -5 -15 -4 -2 5 21 15 7 23 -50 29 -27 2 -47 8 -44 13 7 12 -23 11 -70 -2
-28 -8 -41 -8 -46 0 -3 7 -14 9 -23 5 -10 -3 -17 -1 -17 5 0 6 5 11 10 11 6 0
10 5 10 10 0 15 -41 12 -70 -5 -37 -21 -60 -18 -26 4 l29 19 -27 -1 c-14 -1
-28 -9 -31 -17z m235 -109 c0 -8 -6 -11 -15 -7 -9 3 -15 0 -15 -9 0 -16 -14
-18 -45 -6 -19 8 -19 8 3 15 12 4 19 12 16 18 -4 6 1 8 15 3 12 -3 21 -3 20 2
-1 4 -1 13 0 18 2 14 21 -17 21 -34z m-113 -31 c-3 -13 0 -20 9 -20 9 0 12
-10 11 -30 -2 -30 -11 -38 -22 -20 -3 5 -22 -6 -41 -25 -19 -19 -45 -35 -57
-35 -19 1 -20 2 -6 13 9 7 14 18 12 24 -3 7 2 16 11 19 25 10 19 26 -6 18 -21
-6 -21 -5 4 15 29 23 58 28 58 9 0 -6 3 -8 8 -4 7 8 8 13 11 41 0 8 4 15 7 15
4 0 4 -9 1 -20z m203 -26 c0 -8 -5 -12 -10 -9 -6 4 -8 11 -5 16 9 14 15 11 15
-7z m154 -6 c-4 -7 2 -8 17 -3 38 12 10 -12 -36 -30 -40 -16 -40 -15 -18 3 12
11 20 22 17 25 -9 9 6 28 17 21 5 -3 6 -10 3 -16z m-79 2 c-3 -5 -13 -10 -21
-10 -8 0 -12 5 -9 10 3 6 13 10 21 10 8 0 12 -4 9 -10z m-75 -30 c0 -5 -4 -10
-9 -10 -6 0 -13 5 -16 10 -3 6 1 10 9 10 9 0 16 -4 16 -10z m-380 -10 c0 -5
-5 -10 -11 -10 -5 0 -7 5 -4 10 3 6 8 10 11 10 2 0 4 -4 4 -10z m-370 -69 c0
-5 -7 -12 -16 -15 -14 -5 -15 -4 -4 9 14 17 20 19 20 6z m400 -8 c0 -3 -16
-25 -35 -49 -19 -23 -39 -54 -45 -69 -10 -25 -13 -27 -58 -21 -26 3 -73 8
-104 12 -34 4 -59 12 -62 20 -3 8 -1 14 4 14 6 0 10 7 10 16 0 11 6 14 20 9
14 -4 20 -2 20 9 0 10 8 13 31 11 24 -3 30 -1 25 10 -3 8 -1 15 4 15 6 0 10 6
10 14 0 10 14 16 43 18 52 4 137 -2 137 -9z m637 -57 c-3 -7 -1 -19 3 -26 7
-11 11 -11 24 -1 13 11 16 11 16 -3 0 -16 -26 -21 -47 -8 -12 8 -16 25 -14 62
1 22 3 23 12 7 6 -10 8 -24 6 -31z m37 19 c-4 -8 -8 -15 -10 -15 -2 0 -4 7 -4
15 0 8 4 15 10 15 5 0 7 -7 4 -15z m-1174 -30 c0 -5 -5 -3 -10 5 -5 8 -10 20
-10 25 0 6 5 3 10 -5 5 -8 10 -19 10 -25z m110 -27 c0 -19 -16 -5 -17 14 -2
18 0 20 7 8 5 -8 10 -18 10 -22z"/>
<path d="M3433 1576 c-62 -5 -113 -12 -113 -16 0 -3 16 -12 35 -19 30 -11 37
-19 52 -69 24 -77 24 -334 0 -440 -9 -40 -17 -77 -17 -81 0 -5 24 -2 52 6 32
8 72 11 100 7 47 -6 48 -6 48 20 0 27 -1 27 -45 20 -41 -6 -45 -4 -45 14 0 11
8 40 18 64 27 63 42 129 51 230 8 88 -2 257 -17 268 -4 3 -58 1 -119 -4z"/>
<path d="M3773 1576 c-62 -5 -113 -12 -113 -16 0 -3 16 -12 35 -19 30 -11 37
-19 52 -69 24 -77 24 -334 0 -440 -9 -40 -17 -77 -17 -81 0 -5 24 -2 52 6 32
8 72 11 100 7 47 -6 48 -6 48 20 0 27 -1 27 -45 20 -41 -6 -45 -4 -45 14 0 11
8 40 18 64 27 63 42 129 51 230 8 88 -2 257 -17 268 -4 3 -58 1 -119 -4z"/>
<path d="M2185 1533 c-80 -41 -120 -106 -135 -216 -13 -91 1 -200 34 -273 42
-92 132 -129 271 -113 82 10 123 33 152 85 32 55 29 58 -19 24 -80 -56 -175
-56 -222 1 -49 58 -104 298 -87 384 10 50 36 101 58 114 31 18 -17 13 -52 -6z"/>
<path d="M2462 1521 c27 -25 31 -33 22 -48 -6 -10 -22 -19 -35 -21 -63 -6 -99
-23 -114 -53 -9 -16 -13 -34 -10 -39 16 -26 73 -43 148 -44 72 -1 80 1 99 24
42 52 -2 149 -86 189 -60 28 -63 27 -24 -8z"/>
<path d="M1612 1510 c0 -14 2 -19 5 -12 2 6 2 18 0 25 -3 6 -5 1 -5 -13z"/>
<path d="M1556 1410 c-11 -3 -15 -9 -10 -13 10 -6 42 9 34 16 -3 3 -14 1 -24
-3z"/>
<path d="M3142 1399 c-46 -9 -85 -19 -88 -21 -2 -3 1 -20 6 -39 24 -84 1 -102
-65 -49 -89 71 -196 72 -266 4 -54 -52 -74 -111 -74 -211 0 -72 3 -85 23 -105
21 -21 32 -23 130 -23 103 0 109 1 166 33 66 38 86 36 86 -8 0 -35 -4 -34 75
-15 33 8 79 15 103 15 42 0 51 10 33 39 -6 9 -20 11 -50 6 -48 -8 -58 5 -40
51 6 16 15 87 18 159 l6 129 32 22 c32 21 34 35 4 33 -9 -1 -53 -10 -99 -20z
m-87 -183 c79 -33 22 -118 -101 -152 -122 -33 -264 11 -247 75 7 28 23 39 90
67 69 28 202 33 258 10z"/>
<path d="M225 1390 c21 -24 26 -25 19 -6 -3 8 -13 17 -22 21 -13 5 -13 2 3
-15z"/>
<path d="M1205 1370 c-3 -5 -3 -10 2 -11 86 -7 125 -5 110 6 -20 15 -103 19
-112 5z"/>
<path d="M4760 1363 c-19 -8 -61 -16 -93 -16 -46 -1 -57 -5 -55 -17 2 -9 16
-16 36 -18 21 -2 38 -12 49 -29 15 -22 15 -38 5 -150 -13 -136 -21 -159 -58
-173 -13 -5 -24 -14 -24 -20 0 -5 1 -10 3 -10 1 0 38 7 82 15 44 9 128 18 188
22 59 3 107 10 107 15 0 4 -12 8 -27 8 -16 0 -45 5 -65 10 -36 10 -39 15 -59
81 -16 52 -20 88 -17 140 3 61 7 73 34 100 17 16 48 36 70 44 26 9 32 14 18
15 -12 0 -47 -13 -77 -29 -47 -25 -58 -27 -68 -15 -6 7 -9 21 -5 29 7 18 1 18
-44 -2z"/>
<path d="M5035 1373 c30 -7 64 -43 58 -60 -3 -8 -30 -25 -60 -38 -40 -18 -57
-32 -67 -57 -23 -54 -13 -61 74 -56 84 5 153 31 158 61 13 70 -77 159 -157
156 -20 -1 -22 -2 -6 -6z"/>
<path d="M957 1360 c-31 -6 -72 -28 -56 -31 50 -7 62 -7 49 1 -12 8 -10 10 10
11 14 1 30 2 35 4 6 1 18 3 28 3 9 1 17 7 17 12 0 11 -26 11 -83 0z"/>
<path d="M4253 1360 c-87 -18 -180 -87 -209 -156 -56 -133 78 -285 250 -284
142 1 238 121 240 302 1 80 -21 117 -80 135 -45 13 -140 15 -201 3z m209 -124
c132 -63 7 -194 -193 -204 -128 -6 -199 22 -199 78 0 52 60 102 165 137 52 17
181 11 227 -11z"/>
<path d="M1636 1303 c10 -40 14 -41 14 -5 0 18 -5 32 -10 32 -6 0 -8 -11 -4
-27z"/>
<path d="M1077 1245 c-4 -8 -2 -17 3 -20 6 -4 10 -1 10 4 0 6 7 11 15 11 8 0
15 5 15 10 0 16 -37 12 -43 -5z"/>
<path d="M1170 1250 c0 -5 9 -10 21 -10 11 0 17 5 14 10 -3 6 -13 10 -21 10
-8 0 -14 -4 -14 -10z"/>
<path d="M1636 1235 c-3 -8 -1 -15 4 -15 13 0 22 18 11 24 -5 3 -11 -1 -15 -9z"/>
<path d="M638 1223 c-9 -2 -22 -17 -28 -34 -11 -25 -18 -29 -54 -30 -22 0 -70
-3 -105 -5 -39 -3 -68 0 -77 7 -24 19 -44 3 -44 -36 0 -29 -3 -36 -17 -33 -11
2 -17 11 -15 21 2 9 -2 17 -8 17 -5 0 -10 -6 -10 -12 -1 -7 -7 5 -15 26 -7 21
-21 46 -29 54 -14 14 -15 11 -10 -26 2 -22 12 -58 22 -79 9 -21 17 -42 18 -48
0 -5 12 -35 26 -65 14 -30 28 -63 31 -72 4 -10 11 -18 17 -18 6 0 8 -5 4 -12
-4 -7 8 -1 27 13 19 13 36 24 39 24 14 2 56 18 60 24 3 4 34 12 70 18 72 12
186 59 194 79 3 8 1 14 -4 14 -6 0 -10 13 -10 29 0 16 -6 32 -12 34 -10 4 -10
6 0 6 6 1 12 6 12 12 0 6 -7 9 -15 5 -17 -6 -20 9 -4 20 8 4 7 9 -2 14 -10 7
-10 11 0 23 10 13 9 15 -11 10 -22 -4 -22 -4 -4 11 19 16 19 16 -5 15 -13 -1
-31 -3 -41 -6z m-230 -95 c-3 -7 -15 -15 -28 -16 -21 -3 -22 -2 -11 12 16 19
44 21 39 4z"/>
<path d="M734 1178 c3 -18 8 -59 12 -90 8 -66 24 -78 24 -17 0 37 -27 139 -37
139 -2 0 -2 -15 1 -32z"/>
<path d="M822 1180 c0 -14 2 -19 5 -12 2 6 2 18 0 25 -3 6 -5 1 -5 -13z"/>
<path d="M1439 1173 c-29 -14 -62 -83 -53 -108 5 -13 20 -18 44 -17 3 0 6 -18
7 -40 3 -43 17 -68 39 -68 14 0 18 11 15 41 -2 14 6 16 45 14 36 -3 44 -1 35
8 -7 7 -29 12 -49 12 -29 0 -37 4 -40 20 -2 11 -1 17 3 13 4 -4 17 2 29 13 17
17 29 20 66 15 26 -3 39 -2 32 3 -7 4 -14 14 -15 22 -2 8 -6 19 -10 26 -4 6
-3 14 3 18 23 14 8 26 -25 19 -24 -4 -35 -2 -35 6 0 6 -10 10 -22 9 -13 -2
-27 -1 -33 2 -5 3 -22 0 -36 -8z"/>
<path d="M1060 1167 c-20 -7 -36 -20 -38 -31 -3 -13 0 -17 9 -14 45 17 61 20
55 9 -13 -20 13 -11 27 9 16 23 51 28 112 17 37 -7 39 -6 21 8 -24 18 -134 20
-186 2z"/>
<path d="M1643 1126 c2 -19 0 -37 -5 -40 -5 -2 -3 -3 4 -2 15 3 20 64 6 72 -5
3 -7 -10 -5 -30z"/>
<path d="M1135 1130 c-16 -7 -11 -9 20 -9 29 -1 36 2 25 9 -17 11 -19 11 -45
0z"/>
<path d="M787 1124 c-4 -4 -7 -23 -7 -41 0 -38 23 -42 28 -5 4 25 -11 56 -21
46z"/>
<path d="M1642 1048 c1 -16 6 -28 10 -28 11 0 10 22 -2 40 -8 11 -9 9 -8 -12z"/>
<path d="M860 1031 c0 -5 5 -13 10 -16 6 -3 10 -2 10 4 0 5 -4 13 -10 16 -5 3
-10 2 -10 -4z"/>
<path d="M1023 1015 c-6 -15 -7 -25 -1 -25 5 0 7 -3 5 -7 -3 -5 15 -8 39 -8
32 0 43 3 40 12 -7 17 2 17 19 0 20 -20 104 -7 121 18 13 19 12 21 -14 20 -15
-1 -33 3 -40 9 -9 7 -17 5 -24 -5 -7 -11 -11 -11 -15 -1 -4 10 -9 9 -19 -5
-10 -13 -13 -14 -9 -2 8 22 -64 13 -73 -10 -5 -13 -7 -12 -12 6 l-5 22 -12
-24z"/>
<path d="M1325 1029 c-4 -6 0 -18 9 -27 15 -15 16 -15 16 5 0 25 -15 38 -25
22z"/>
<path d="M1401 1024 c0 -11 3 -14 6 -6 3 7 2 16 -1 19 -3 4 -6 -2 -5 -13z"/>
<path d="M920 990 c-9 -6 -10 -10 -3 -10 6 0 15 5 18 10 8 12 4 12 -15 0z"/>
<path d="M1640 986 c0 -8 4 -17 9 -20 4 -3 6 -28 3 -56 -2 -29 0 -50 5 -50 5
0 11 17 12 38 2 33 2 47 -1 90 -2 17 -28 15 -28 -2z"/>
<path d="M1579 978 c-7 -24 -7 -48 0 -48 5 0 11 11 13 25 3 14 1 25 -3 25 -5
0 -9 -1 -10 -2z"/>
<path d="M185 950 c10 -11 24 -20 31 -20 7 0 15 -9 19 -19 11 -35 32 -45 57
-26 13 10 16 15 6 12 -10 -3 -27 4 -42 18 -54 50 -109 77 -71 35z"/>
<path d="M1287 905 c-10 -21 -16 -39 -14 -42 8 -7 38 48 35 64 -2 10 -10 2
-21 -22z"/>
<path d="M1544 901 c10 -16 45 -19 50 -5 4 10 -3 14 -25 14 -17 0 -28 -4 -25
-9z"/>
<path d="M270 839 c0 -5 5 -7 10 -4 6 3 10 8 10 11 0 2 -4 4 -10 4 -5 0 -10
-5 -10 -11z"/>
<path d="M1626 797 c-10 -7 -16 -22 -14 -33 3 -21 3 -21 33 -1 17 10 22 17 13
13 -10 -3 -18 -1 -18 4 0 6 7 10 15 10 8 0 15 5 15 10 0 14 -23 12 -44 -3z"/>
<path d="M2865 758 c-17 -46 -105 -314 -105 -320 0 -4 8 -8 18 -8 14 0 28 33
70 158 28 87 52 163 52 170 0 16 -29 16 -35 0z"/>
<path d="M357 753 c-4 -3 -7 -11 -7 -17 0 -6 5 -5 12 2 6 6 9 14 7 17 -3 3 -9
2 -12 -2z"/>
<path d="M4500 619 c0 -128 2 -140 18 -137 15 3 17 19 20 141 2 132 2 137 -18
137 -19 0 -20 -6 -20 -141z"/>
<path d="M1652 743 c-6 -2 -10 -8 -8 -12 3 -4 -5 -7 -17 -7 -14 1 -21 -4 -19
-13 2 -8 -3 -11 -10 -8 -7 2 -20 -2 -28 -11 -12 -14 -11 -15 8 -10 12 4 20 2
16 -3 -10 -17 -45 -9 -54 14 l-9 22 0 -22 c-1 -14 -7 -23 -17 -23 -11 0 -15
-6 -11 -20 3 -11 1 -20 -3 -20 -4 0 -6 -10 -3 -22 6 -22 6 -22 -15 2 -12 14
-21 19 -22 13 0 -7 4 -13 8 -13 4 0 8 -9 9 -20 1 -11 -4 -20 -10 -20 -7 0 -19
-9 -26 -19 -8 -11 -21 -17 -29 -13 -11 4 -13 1 -7 -7 5 -10 2 -11 -14 -6 -12
3 -21 3 -20 -2 3 -20 -2 -34 -11 -28 -5 3 -18 -3 -30 -15 -11 -11 -29 -20 -40
-20 -13 0 -18 -5 -14 -15 5 -12 9 -13 21 -4 7 7 28 13 46 14 18 1 42 7 54 13
20 11 33 7 33 -10 0 -4 -4 -8 -10 -8 -9 0 -110 -58 -120 -69 -3 -4 -16 -7 -28
-9 -30 -3 -75 -32 -50 -32 9 0 20 5 23 10 3 6 14 10 23 10 16 -1 16 -2 0 -14
-24 -18 -11 -28 16 -11 11 7 35 16 52 18 18 3 41 14 53 26 32 32 41 26 41 -25
0 -38 3 -45 18 -42 9 2 21 13 27 26 5 12 13 22 16 22 13 0 -3 -41 -20 -50 -36
-21 -41 -27 -35 -43 3 -9 10 -17 15 -17 4 0 6 6 3 14 -3 9 3 17 15 21 12 3 27
12 34 18 7 7 26 20 42 29 45 25 43 43 -2 20 l-38 -20 1 39 c1 45 -4 40 56 67
34 16 46 26 42 37 -4 10 -14 14 -28 10 -21 -6 -21 -6 -1 10 16 13 17 19 8 34
-10 16 -8 22 13 36 14 9 32 14 40 11 11 -4 14 4 14 34 0 33 3 40 19 40 11 0
23 5 27 12 5 8 -2 9 -24 5 -18 -4 -32 -4 -32 -1 0 3 15 19 33 36 27 26 29 29
10 23 -13 -3 -23 -4 -23 0 0 3 10 10 23 15 20 8 20 9 2 9 -11 -1 -26 -3 -33
-6z m-32 -83 c0 -13 -48 -32 -69 -27 -11 3 -4 9 19 20 42 19 50 20 50 7z m0
-44 c0 -18 -47 -27 -54 -10 -5 14 8 22 37 23 9 1 17 -5 17 -13z"/>
<path d="M2140 625 c0 -144 3 -148 93 -143 40 2 53 7 55 21 3 14 -5 17 -52 17
l-56 0 0 39 0 40 48 3 c34 2 47 7 47 18 0 11 -13 16 -47 18 -47 3 -48 4 -48
37 0 34 0 34 52 37 41 2 54 7 56 21 3 15 -6 17 -72 17 l-76 0 0 -125z"/>
<path d="M2320 622 c0 -71 3 -131 6 -135 3 -3 12 -3 20 0 9 3 14 21 14 54 0
64 15 63 63 -1 23 -31 45 -50 57 -50 26 0 25 8 -10 54 -33 44 -37 56 -16 56
21 0 46 40 46 73 0 16 -10 38 -25 52 -21 22 -33 25 -90 25 l-65 0 0 -128z
m128 86 c7 -7 12 -24 12 -40 0 -32 -24 -48 -69 -48 -30 0 -31 1 -31 50 l0 50
38 0 c21 0 43 -5 50 -12z"/>
<path d="M2530 622 c0 -71 3 -131 6 -135 17 -16 34 8 34 49 l0 44 39 0 c59 0
96 35 96 90 0 60 -28 80 -111 80 l-64 0 0 -128z m125 48 l0 -45 -42 -3 -43 -3
0 51 0 51 43 -3 42 -3 0 -45z"/>
<path d="M2960 620 c0 -123 1 -130 20 -130 17 0 20 7 20 45 l0 45 39 0 c59 0
96 35 96 90 0 60 -28 80 -111 80 l-64 0 0 -130z m125 50 l0 -45 -42 -3 -43 -3
0 51 0 51 43 -3 42 -3 0 -45z"/>
<path d="M3201 729 c-29 -27 -41 -60 -41 -113 0 -86 36 -136 97 -136 58 0 103
59 103 135 0 106 -94 174 -159 114z m107 -64 c19 -56 8 -121 -24 -141 -22 -15
-26 -15 -49 0 -27 18 -41 68 -32 122 8 49 24 66 61 62 26 -3 33 -9 44 -43z"/>
<path d="M3413 735 c-26 -18 -37 -59 -23 -86 6 -11 32 -30 58 -42 77 -37 66
-91 -17 -85 -36 2 -47 -1 -49 -14 -2 -12 6 -19 32 -23 73 -14 126 18 126 75 0
37 -18 56 -72 79 -35 15 -48 26 -48 40 0 28 30 41 74 34 28 -4 36 -2 36 10 0
29 -80 38 -117 12z"/>
<path d="M3690 626 c0 -144 4 -152 75 -144 68 8 91 29 106 92 24 110 -25 176
-133 176 l-48 0 0 -124z m128 67 c17 -33 23 -98 12 -128 -14 -37 -26 -45 -67
-45 l-33 0 0 95 0 95 40 0 c27 0 42 -5 48 -17z"/>
<path d="M350 700 c0 -5 5 -10 10 -10 6 0 10 5 10 10 0 6 -4 10 -10 10 -5 0
-10 -4 -10 -10z"/>
<path d="M4634 690 c-59 -24 -74 -124 -28 -179 48 -57 133 -36 153 36 13 44 0
102 -27 126 -23 21 -70 29 -98 17z m74 -42 c10 -12 15 -52 13 -90 -1 -21 -28
-48 -47 -48 -43 0 -70 81 -44 131 12 22 62 26 78 7z"/>
<path d="M3923 664 c-23 -23 -25 -32 -21 -80 6 -64 27 -92 79 -100 41 -7 89
10 89 30 0 12 -10 14 -51 9 -43 -5 -54 -3 -65 12 -23 31 -17 35 56 35 80 0 89
8 70 65 -14 42 -35 55 -90 55 -31 0 -47 -6 -67 -26z m111 -20 c25 -24 21 -48
-6 -40 -13 3 -38 6 -55 6 -34 0 -43 16 -21 38 17 17 64 15 82 -4z"/>
<path d="M4092 678 c3 -7 17 -49 33 -93 48 -137 67 -138 109 -9 16 49 31 95
33 102 3 7 -3 12 -14 12 -16 0 -25 -16 -45 -82 l-24 -83 -28 83 c-22 67 -31
82 -48 82 -12 0 -18 -5 -16 -12z"/>
<path d="M4303 664 c-23 -23 -25 -32 -21 -80 6 -64 27 -92 79 -100 41 -7 89
10 89 30 0 12 -10 14 -51 9 -43 -5 -54 -3 -65 12 -23 31 -17 35 56 35 80 0 89
8 70 65 -14 42 -35 55 -90 55 -31 0 -47 -6 -67 -26z m111 -20 c25 -24 21 -48
-6 -40 -13 3 -38 6 -55 6 -34 0 -43 16 -21 38 17 17 64 15 82 -4z"/>
<path d="M4800 550 c0 -113 3 -140 14 -140 16 0 26 21 26 54 0 19 5 21 41 21
58 0 89 37 89 106 0 73 -29 99 -110 99 l-60 0 0 -140z m114 94 c9 -9 16 -32
16 -54 0 -46 -21 -70 -61 -70 l-29 0 0 70 0 70 29 0 c16 0 37 -7 45 -16z"/>
<path d="M5019 664 c-19 -20 -24 -36 -23 -76 0 -44 5 -55 32 -80 34 -30 71
-36 116 -18 14 5 26 16 26 24 0 12 -11 13 -54 9 -48 -5 -55 -3 -70 18 l-17 24
73 5 73 5 3 32 c7 75 -104 115 -159 57z m109 -16 c7 -7 12 -19 12 -29 0 -13
-8 -15 -52 -11 -29 2 -54 6 -56 7 -2 2 1 13 8 24 12 24 68 29 88 9z"/>
<path d="M5217 683 c-4 -3 -7 -51 -7 -105 0 -77 3 -98 14 -98 20 0 26 23 26
106 l0 74 40 0 c29 0 40 4 40 15 0 11 -13 15 -53 15 -30 0 -57 -3 -60 -7z"/>
<path d="M357 650 c-4 -17 -1 -19 18 -14 20 5 22 2 19 -21 -1 -15 -12 -34 -23
-42 -12 -8 -21 -21 -21 -30 0 -14 3 -14 25 1 14 9 25 12 25 6 0 -6 -12 -16
-26 -22 l-26 -12 23 -8 c17 -7 20 -11 11 -20 -18 -18 -14 -38 7 -38 25 0 46
-56 29 -77 -23 -28 -19 -43 8 -32 21 7 24 6 22 -9 -2 -12 4 -17 22 -18 45 -1
52 -4 47 -18 -8 -21 31 -7 43 15 11 20 40 15 40 -6 0 -11 9 -11 46 2 37 12 48
13 54 3 4 -7 15 -10 24 -7 10 4 20 -2 27 -16 7 -12 17 -25 23 -29 18 -13 36
-9 30 6 -3 8 5 21 18 30 28 20 38 20 38 0 0 -10 6 -14 15 -10 9 3 15 0 15 -7
0 -7 7 -22 15 -33 12 -15 14 -16 9 -2 -4 12 4 23 28 38 39 24 60 26 52 5 -4
-8 -2 -15 3 -15 14 0 42 37 35 46 -4 4 1 4 10 1 9 -3 18 -2 20 2 2 5 40 27 86
50 45 24 82 45 82 47 0 7 -54 -8 -67 -18 -7 -5 -14 -5 -18 2 -7 12 -68 3 -73
-11 -2 -5 -11 -9 -19 -9 -11 0 -14 -7 -9 -25 4 -15 2 -25 -4 -25 -6 0 -9 4 -5
9 10 17 -15 23 -31 7 -8 -9 -21 -16 -27 -16 -8 0 -7 -3 1 -9 10 -6 5 -11 -19
-20 -17 -6 -35 -11 -39 -11 -13 0 -17 47 -7 66 9 15 6 16 -24 10 -18 -3 -37
-12 -41 -19 -6 -9 -8 -9 -8 0 0 6 5 15 10 18 19 12 11 38 -10 32 -14 -3 -24 1
-31 15 -6 10 -16 17 -22 15 -6 -2 -18 5 -27 15 -8 11 -31 21 -50 24 -19 3 -37
10 -38 15 -2 5 -8 7 -13 3 -5 -3 -9 0 -9 5 0 6 -10 10 -21 8 -12 -1 -23 4 -25
11 -1 7 0 8 3 2 2 -5 9 -10 15 -10 7 0 6 5 -2 14 -6 8 -17 13 -24 10 -8 -3
-16 2 -19 10 -5 13 -12 14 -32 6 -35 -13 -35 -13 -35 11 0 14 -5 19 -14 16
-16 -6 -43 20 -32 30 4 4 11 1 16 -7 7 -12 12 -12 22 -2 9 9 9 12 -5 12 -9 0
-17 7 -17 15 0 8 -9 15 -20 15 -11 0 -20 -4 -20 -10 0 -23 -21 -7 -26 20 -5
23 -12 30 -29 30 -14 0 -25 -7 -28 -20z m367 -266 c9 -3 14 -10 11 -15 -7 -10
-35 0 -35 12 0 11 3 11 24 3z m76 2 c0 -3 -4 -8 -10 -11 -5 -3 -10 -1 -10 4 0
6 5 11 10 11 6 0 10 -2 10 -4z m337 -2 c-3 -4 -19 -8 -34 -10 -15 -1 -29 -8
-31 -13 -4 -13 -22 -15 -22 -3 0 5 10 13 21 18 25 11 75 17 66 8z m-476 -33
c-7 -5 -10 -14 -7 -20 4 -6 2 -11 -3 -11 -12 0 -15 23 -4 33 3 4 11 7 17 7 6
0 5 -4 -3 -9z m-51 -11 c0 -5 -5 -10 -11 -10 -5 0 -7 5 -4 10 3 6 8 10 11 10
2 0 4 -4 4 -10z m-80 -10 c13 -8 13 -10 -2 -10 -9 0 -20 5 -23 10 -8 13 5 13
25 0z"/>
<path d="M1645 550 c3 -5 8 -10 11 -10 2 0 4 5 4 10 0 6 -5 10 -11 10 -5 0 -7
-4 -4 -10z"/>
<path d="M1240 429 c0 -5 5 -7 10 -4 6 3 10 8 10 11 0 2 -4 4 -10 4 -5 0 -10
-5 -10 -11z"/>
<path d="M930 379 c0 -5 5 -7 10 -4 6 3 10 8 10 11 0 2 -4 4 -10 4 -5 0 -10
-5 -10 -11z"/>
</g>
</svg>
